# WaveFront OBJ file
# Written by XDrive

g Mesh0

v 0.0000 0.0000 0.0000
v 0.0000 0.0000 1.0000
v 0.0000 1.0000 0.0000
v 0.0000 1.0000 1.0000
v 1.0000 0.0000 0.0000
v 1.0000 0.0000 1.0000
v 1.0000 1.0000 0.0000
v 1.0000 1.0000 1.0000

vn -0.5774 -0.5774 -0.5774
vn -0.4082 -0.4082 0.8165
vn -0.4082 0.8165 -0.4082
vn -0.8165 0.4082 0.4082
vn 0.8165 -0.4082 -0.4082
vn 0.4082 -0.8165 0.4082
vn 0.4082 0.4082 -0.8165
vn 0.5774 0.5774 0.5774

f 1//1 7//7 5//5 
f 1//1 3//3 7//7 
f 1//1 4//4 3//3 
f 1//1 2//2 4//4 
f 3//3 8//8 7//7 
f 3//3 4//4 8//8 
f 5//5 7//7 8//8 
f 5//5 8//8 6//6 
f 1//1 5//5 6//6 
f 1//1 6//6 2//2 
f 2//2 6//6 8//8 
f 2//2 8//8 4//4 

