# WaveFront OBJ file
# Written by XDrive

mtllib temp.mtl

g Mesh0

v -1.0000 -1.0000 -1.0000
v 1.0000 -1.0000 -1.0000
v -1.0000 1.0000 -1.0000
v 1.0000 1.0000 -1.0000
v -1.0000 -1.0000 1.0000
v 1.0000 -1.0000 1.0000
v -1.0000 1.0000 1.0000
v 1.0000 1.0000 1.0000

vt 0.0000 0.0000
vt 0.0000 1.0000
vt 1.0000 1.0000
vt 1.0000 0.0000
vt 0.0000 0.0000
vt 0.0000 1.0000
vt 1.0000 1.0000
vt 1.0000 0.0000

vn -0.7071 -0.7071 0.0000
vn 0.4082 -0.8165 -0.4082
vn -0.8165 0.4082 -0.4082
vn 0.6667 0.6667 -0.3333
vn -0.6667 -0.6667 0.3333
vn 0.6667 -0.3333 0.6667
vn -0.3333 0.6667 0.6667
vn 0.5774 0.5774 0.5774

f 2/2/2 3/3/3 4/1/4 
f 3/1/3 1/3/1 1/2/1 
f 5/1/5 6/2/6 7/3/7 
f 7/1/7 6/2/6 8/3/8 
f 4/1/4 3/4/3 7/2/7 
f 4/1/4 7/4/7 8/2/8 
f 1/1/1 2/4/2 5/2/5 
f 5/1/5 2/4/2 6/2/6 
f 3/1/3 1/4/1 5/2/5 
f 3/1/3 5/4/5 7/2/7 
f 2/1/2 4/4/4 6/2/6 
f 6/1/6 4/4/4 8/2/8 

