mtllib test_crate.mtl
g g0
o wavefront obj
v -0.5 -0.5 -1.1
v -0.5 0.5 -1.1
v 0.5 0.5 -1.1
v 0.5 -0.5 -1.1
v 0.5 -0.5 -0.1
v 0.5 0.5 -0.1
v -0.5 0.5 -0.1
v -0.5 -0.5 -0.1
vn 0 -1 0
vn 0 -1 0
vn 0 -1 0
vn 0 -1 0
vn 0 1 0
vn 0 1 0
vn 0 1 0
vn 0 1 0
vn 1 0 0
vn 1 0 0
vn 1 0 0
vn 1 0 0
vn -1 0 0
vn -1 0 0
vn -1 0 0
vn -1 0 0
vn 0 0 -1
vn 0 0 -1
vn 0 0 -1
vn 0 0 -1
vn 0 0 1
vn 0 0 1
vn 0 0 1
vn 0 0 1
vt 1 0
vt 1 1
vt 0 1
vt 0 0
vt 1 0
vt 1 1
vt 0 1
vt 0 0
vt 1 0
vt 1 1
vt 0 1
vt 0 0
vt 1 0
vt 1 1
vt 0 1
vt 0 0
vt 1 0
vt 1 1
vt 0 1
vt 0 0
vt 1 0
vt 1 1
vt 0 1
vt 0 0
usemtl acmat_0
f 4/1/1 5/2/2 8/3/3 1/4/4
f 6/5/5 3/6/6 2/7/7 7/8/8
f 4/9/9 3/10/10 6/11/11 5/12/12
f 8/13/13 7/14/14 2/15/15 1/16/16
f 1/17/17 2/18/18 3/19/19 4/20/20
f 5/21/21 6/22/22 7/23/23 8/24/24
